<svg width="86" height="86" viewBox="0 0 86 86" fill="none" xmlns="http://www.w3.org/2000/svg">
<rect width="86" height="86" fill="#171717"/>
<path d="M25.752 67V16.6H46.488C49.656 16.6 52.44 17.248 54.84 18.544C57.288 19.792 59.184 21.568 60.528 23.872C61.92 26.176 62.616 28.912 62.616 32.08V33.088C62.616 36.208 61.896 38.944 60.456 41.296C59.064 43.6 57.144 45.4 54.696 46.696C52.296 47.944 49.56 48.568 46.488 48.568H35.256V67H25.752ZM35.256 39.928H45.552C47.808 39.928 49.632 39.304 51.024 38.056C52.416 36.808 53.112 35.104 53.112 32.944V32.224C53.112 30.064 52.416 28.36 51.024 27.112C49.632 25.864 47.808 25.24 45.552 25.24H35.256V39.928Z" fill="white"/>
</svg>